<?xml version="1.0" encoding="UTF-8" standalone="no"?>
<!-- Uploaded to: SVG Repo, www.svgrepo.com, Transformed by: SVG Repo Mixer Tools -->

<svg
   width="64px"
   height="64px"
   viewBox="0 0 24 24"
   fill="none"
   version="1.1"
   id="svg2"
   sodipodi:docname="toggle-off-svgrepo-com (1) - Copia.svg"
   inkscape:version="1.4 (86a8ad7, 2024-10-11)"
   xmlns:inkscape="http://www.inkscape.org/namespaces/inkscape"
   xmlns:sodipodi="http://sodipodi.sourceforge.net/DTD/sodipodi-0.dtd"
   xmlns="http://www.w3.org/2000/svg"
   xmlns:svg="http://www.w3.org/2000/svg">
  <defs
     id="defs2" />
  <sodipodi:namedview
     id="namedview2"
     pagecolor="#ffffff"
     bordercolor="#000000"
     borderopacity="0.25"
     inkscape:showpageshadow="2"
     inkscape:pageopacity="0.0"
     inkscape:pagecheckerboard="true"
     inkscape:deskcolor="#d1d1d1"
     inkscape:zoom="12.734375"
     inkscape:cx="32.039264"
     inkscape:cy="32"
     inkscape:window-width="1920"
     inkscape:window-height="1017"
     inkscape:window-x="-8"
     inkscape:window-y="-8"
     inkscape:window-maximized="1"
     inkscape:current-layer="svg2" />
  <g
     id="SVGRepo_bgCarrier"
     stroke-width="0"
     transform="matrix(-1,0,0,1,24,0)" />
  <g
     id="SVGRepo_tracerCarrier"
     stroke-linecap="round"
     stroke-linejoin="round"
     transform="matrix(-1,0,0,1,24,0)" />
  <g
     id="SVGRepo_iconCarrier"
     transform="matrix(-1,0,0,1,24,0)">
    <path
       d="m 17,15 c 1.6569,0 3,-1.3431 3,-3 0,-1.6569 -1.3431,-3 -3,-3 -1.6569,0 -3,1.3431 -3,3 0,1.6569 1.3431,3 3,3 z"
       fill="#ffffff"
       id="path1" />
    <path
       fill-rule="evenodd"
       clip-rule="evenodd"
       d="M 0,12 C 0,8.13401 3.13401,5 7,5 h 10 c 3.866,0 7,3.13401 7,7 0,3.866 -3.134,7 -7,7 H 7 C 3.13401,19 0,15.866 0,12 Z M 7,7 h 10 c 2.7614,0 5,2.23858 5,5 0,2.7614 -2.2386,5 -5,5 H 7 C 4.23858,17 2,14.7614 2,12 2,9.23858 4.23858,7 7,7 Z"
       fill="#ffffff"
       id="path2" />
  </g>
</svg>
