<?xml version="1.0" encoding="UTF-8"?>
<svg xmlns="http://www.w3.org/2000/svg"
     width="64"
     height="64"
     viewBox="0 0 1.92 1.92">

    <path
        d="m 1.1383968,0.40945352 c 0,-0.049011 0,-0.073517 0.00954,-0.092237 0.00839,-0.016466 0.021773,-0.029854 0.038243,-0.038244 0.018719,-0.00954 0.043222,-0.00954 0.092238,-0.00954 h 0.2450339 c 0.049016,0 0.073519,0 0.092238,0.00954 0.01647,0.00839 0.02985,0.021778 0.038243,0.038244 0.00954,0.01872 0.00954,0.043226 0.00954,0.092237 v 0.2450339 c 0,0.049011 0,0.073517 -0.00954,0.092237 -0.00839,0.016466 -0.021773,0.029854 -0.038243,0.038245 -0.018719,0.00954 -0.043222,0.00954 -0.092238,0.00954 H 1.2784161 c -0.049015,0 -0.073519,0 -0.092238,-0.00954 -0.01647,-0.00839 -0.02985,-0.021778 -0.038243,-0.038245 -0.00954,-0.01872 -0.00954,-0.043226 -0.00954,-0.092237 z"
        fill="none"
        stroke="#ffffff"
        stroke-width="0.175024" />

    <path
        d="m 0.25155151,0.40945342 c 0,-0.049011 0,-0.073517 0.00954,-0.092237 0.00839,-0.016466 0.021778,-0.029854 0.038244,-0.038244 0.01872,-0.00954 0.043226,-0.00954 0.092237,-0.00954 h 0.2450339 c 0.049011,0 0.073517,0 0.092237,0.00954 0.016466,0.00839 0.029854,0.021778 0.038245,0.038244 0.00954,0.01872 0.00954,0.043226 0.00954,0.092237 v 0.2450339 c 0,0.049011 0,0.073517 -0.00954,0.092237 -0.00839,0.016466 -0.021778,0.029854 -0.038245,0.038245 -0.01872,0.00954 -0.043226,0.00954 -0.092237,0.00954 h -0.2450356 c -0.049011,0 -0.073517,0 -0.092237,-0.00954 -0.016466,-0.00839 -0.029854,-0.021778 -0.038244,-0.038245 -0.00954,-0.01872 -0.00954,-0.043226 -0.00954,-0.092237 z"
        fill="none"
        stroke="#ffffff"
        stroke-width="0.175024" />

    <path
        d="m 0.25155166,1.296297 c 0,-0.049015 0,-0.073519 0.00954,-0.092238 0.00839,-0.01647 0.021778,-0.02985 0.038244,-0.038243 0.01872,-0.00954 0.043226,-0.00954 0.092237,-0.00954 h 0.2450339 c 0.049011,0 0.073517,0 0.092237,0.00954 0.016466,0.00839 0.029854,0.021773 0.038245,0.038243 0.00954,0.018719 0.00954,0.043222 0.00954,0.092238 v 0.2450339 c 0,0.049016 0,0.073519 -0.00954,0.092238 -0.00839,0.01647 -0.021778,0.02985 -0.038245,0.038243 -0.01872,0.00954 -0.043226,0.00954 -0.092237,0.00954 h -0.2450356 c -0.049011,0 -0.073517,0 -0.092237,-0.00954 -0.016466,-0.00839 -0.029854,-0.021773 -0.038244,-0.038243 -0.00954,-0.018719 -0.00954,-0.043222 -0.00954,-0.092238 z"
        fill="none"
        stroke="#ffffff"
        stroke-width="0.175024" />

    <path
        d="m 1.1383967,1.2962969 c 0,-0.049015 0,-0.073519 0.00954,-0.092238 0.00839,-0.01647 0.021773,-0.02985 0.038243,-0.038243 0.018719,-0.00954 0.043222,-0.00954 0.092238,-0.00954 h 0.2450339 c 0.049016,0 0.073519,0 0.092238,0.00954 0.01647,0.00839 0.02985,0.021773 0.038243,0.038243 0.00954,0.018719 0.00954,0.043222 0.00954,0.092238 v 0.2450339 c 0,0.049016 0,0.073519 -0.00954,0.092238 -0.00839,0.01647 -0.021773,0.02985 -0.038243,0.038243 -0.018719,0.00954 -0.043222,0.00954 -0.092238,0.00954 H 1.278416 c -0.049015,0 -0.073519,0 -0.092238,-0.00954 -0.01647,-0.00839 -0.02985,-0.021773 -0.038243,-0.038243 -0.00954,-0.018719 -0.00954,-0.043222 -0.00954,-0.092238 z"
        fill="none"
        stroke="#ffffff"
        stroke-width="0.175024" />

</svg>
